# xmcd
#
# Track frame offsets:
#	150
#	12760
#	31241
#	45026
#	61007
#	75733
#	93512
#	108487
#	126501
#	141604
#	159037
#	172048
#	187673
#	203716
#	215755
#	229493
#	242369
#	253451
#	270069
#	282508
#	297666
#	310145
#
# Disc length: 4360 seconds
# Revision: 0
# Processed by: cddbd v1.5.2PL0 Copyright (c) Steve Scherf et al.
# Submitted via: dBpowerAMP V12.0
#
DISCID=37110616
DTITLE=Anne McCaffrey - Dragonsinger
DYEAR=1992
DGENRE=AudioBook
TTITLE0=05-01
TTITLE1=05-02
TTITLE2=05-03
TTITLE3=05-04
TTITLE4=05-05
TTITLE5=05-06
TTITLE6=05-07
TTITLE7=05-08
TTITLE8=05-09
TTITLE9=05-10
TTITLE10=05-11
TTITLE11=05-12
TTITLE12=05-13
TTITLE13=05-14
TTITLE14=05-15
TTITLE15=05-16
TTITLE16=05-17
TTITLE17=05-18 Ch07
TTITLE18=05-19
TTITLE19=05-20
TTITLE20=05-21
TTITLE21=05-22
EXTD=
EXTT0=
EXTT1=
EXTT2=
EXTT3=
EXTT4=
EXTT5=
EXTT6=
EXTT7=
EXTT8=
EXTT9=
EXTT10=
EXTT11=
EXTT12=
EXTT13=
EXTT14=
EXTT15=
EXTT16=
EXTT17=
EXTT18=
EXTT19=
EXTT20=
EXTT21=
PLAYORDER=
